# xmcd
#
# Track frame offsets:
#	150
#	32323
#	53825
#	91686
#	116659
#	145537
#	173200
#	192159
#	208643
#	233546
#	277531
#	287266
#	303145
#	317449
#	332009
#	346697
#
# Disc length: 4796 seconds
#
# Revision: 1
# Processed by: cddbd v1.5.2PL0 Copyright (c) Steve Scherf et al.
# Submitted via: audiograbber 1.83.01
#
DISCID=be12ba10
DTITLE=Ronnie Earl - Ealing Time
DYEAR=1900
DGENRE=Blues
TTITLE0=Churchin'
TTITLE1=Catfish Blues
TTITLE2=Idle Moments
TTITLE3=Thembi
TTITLE4=Blues For Shawn
TTITLE5=Glimpses Of Serenity
TTITLE6=Lunch At R and M's
TTITLE7=Song For A Brother
TTITLE8=Bella Donna
TTITLE9=Blues On A Sunday
TTITLE10=Amazing Grace
TTITLE11=Inside Out
TTITLE12=She's My Baby
TTITLE13=7 Deadly Sins
TTITLE14=New Blue Moon
TTITLE15=Wilbury Twist
EXTD=
EXTT0=
EXTT1=
EXTT2=
EXTT3=
EXTT4=
EXTT5=
EXTT6=
EXTT7=
EXTT8=
EXTT9=
EXTT10=
EXTT11=
EXTT12=
EXTT13=
EXTT14=
EXTT15=
PLAYORDER=
